<svg xmlns="http://www.w3.org/2000/svg" viewBox="0 0 699.33 737.46"><defs><style>.cls-1{fill:#241c0c;}.cls-2{fill:#0d0c0a;}.cls-3{fill:#2e260d;}.cls-4{fill:#54520f;}.cls-5{fill:#f8d61f;}.cls-6{fill:#df9626;}.cls-7{fill:#f1f90e;}.cls-8{fill:#de9626;}.cls-9{fill:#ed3324;}.cls-10{fill:#802218;}.cls-11{fill:#f1cf20;}.cls-12{fill:#dd9626;}.cls-13{fill:#eece23;}.cls-14{fill:#df9726;}.cls-15{fill:#c1b61d;}.cls-16{fill:#321411;}.cls-17{fill:#090807;}.cls-18{fill:#080807;}.cls-19{fill:#2d290e;}.cls-20{fill:#ea5560;}.cls-21{fill:#a61f2b;}.cls-22{fill:#e9ebe9;}.cls-23{fill:#f0f3f1;}</style></defs><title>Asset 4@</title><g id="Layer_2" data-name="Layer 2"><g id="Layer_1-2" data-name="Layer 1"><path class="cls-1" d="M633.2,524.22c-6.53,7.11-13.26,14-19.51,21.39-3.79,4.47-7.5,5.09-13.1,3.4-36-10.88-72.09-21.36-108.15-32-9.6-2.83-9.61-2.84-14.61,5.74-10.56,18.13-21.28,36.18-31.54,54.47-2.84,5.07-5.91,6.36-11.28,4.54-6.55-2.23-13.09-4.74-21-5.85-.82,9.21-1.65,18-2.37,26.77-.55,6.64-.76,13.31-1.49,19.93s-1.36,7-7.39,5.29c-7.69-2.12-15.28-4.63-23-6.82-2.12-.6-4.3-1.86-7.26-.28,5.32,23.53,12.47,47.64-8.2,68.2,1.16,3,4.12,3,6.34,4.05a209.15,209.15,0,0,1,39.52,23.28c7.62,5.79,11.17,12.79,7.79,16.34-4.58,4.8-10.65,5.63-17.39,4-15.82-3.91-31-9.91-47.11-12.95-11.76-2.22-23.44-4.87-35.16-7.31-5.36-1.11-10.58-2.3-11.38-9.15-.45-3.87-3.85-3-6.24-3.48-17.69-3.16-35.41-6.17-53.11-9.3-11.8-2.09-23.66-3.94-35.33-6.6a73.75,73.75,0,0,0-22.83-1.2c-12,1-23.86,2.38-35.82,3.3-3.68.29-6,1.12-7.24,5.07-1.53,4.85-5.6,7.08-10.58,8-19.65,3.58-39.28,7.22-59.15,9.41-4.3.48-8.6.91-12.9,1.43-6.33.78-12.56.82-18.8-1-7.33-2.16-9.21-8.44-3.76-13.85a48.52,48.52,0,0,1,13.22-8.89c9.27-4.52,18.51-9.11,28.22-12.51.73-2.05-.7-3.06-1.87-4.17-16-15.11-19.71-33.86-13.88-54.09,6.17-21.4,14-42.32,21.21-63.41S102.71,513.8,110,492.72c2.57-7.48,2.51-7.59-5-10.56C89.42,476,77.77,465.78,71,450.2,60.36,425.56,68.78,400.88,92.47,388c13.55-7.39,28.23-9.63,43.43-9.29,2.95.06,5.9.35,8.9.54,1.32-4.12-1.46-6.64-2.77-9.46-6.77-14.53-12.55-29.36-15.73-45.14a84.7,84.7,0,0,1-1.1-23.88,37.11,37.11,0,0,1,8-20.15A136.27,136.27,0,0,0,155,240.4c3.44-9.89,7.46-19.74,14.35-28,.33.38.65.76,1,1.13,1.53,3.87-.36,7.16-1.87,10.45-4.85,10.58-7.83,21.93-13.11,32.32-2.3,4.5-1.12,7.82,2,11.68,18.06,22.65,12.47,59.1-11.61,74.63-5,3.23-6.07,6.22-4,11.38s4.79,10.24,7.08,15.39c2.55,5.73,6.91,8.63,12.92,9.68,20.41,3.54,38.56,12.11,54.86,24.78,1.31,1,2.62,2.3,4.16,2.71,8.64,2.28,13,8.22,14.6,16.6,3.39,4.4,5.28,9,1.38,14.07-3.09,10.31-5.12,20.89-14.62,28.23-3.28,2.54-5.69,5.3-10.07,4.82s-8.49,1.11-12.47,2.89c-23.64,10.61-47.93,18.29-74.34,15.47-6.34-.68-7.9,3.57-9.42,8.13-9,26.83-18.89,53.32-28,80.11-4.49,13.24-9.67,26.22-14,39.54-5.59,17.35-4,33.43,7.17,48.18,6.32,7.75,14.47,12.61,23.93,15.55,2.83.88,6.73,2.05,6.24,5.38s-4.53,3.14-7.53,3.19C85.76,678.51,70.49,688,55.71,695c3.1-.89,6.37-3.31,10.09-4.75,2.24-.86,4.7-1.86,5.92,1.15,1.15,2.83-1,4.12-3.2,5.28C63,699.58,56.57,700.46,52.4,704c5.93-3.86,13.62-6,20.94-8.86,2.49-1,5.64-.79,6.48,2.64.71,2.91-1.76,4.13-4,4.81-5.94,1.78-11.53,4.57-16.94,5.93,6.27-.88,13.21-1.6,20.07-2.95,18.64-3.07,37.75-3.26,56.08-9.25-.54-2.53-2.49-1.65-3.71-2-2.32-.64-4.83-1.19-4.67-4.19.15-2.82,2.62-3.7,4.92-4.13a133.11,133.11,0,0,1,16.82-2.13c30.17-1.71,60.23-6,90.56-4.59,3,.14,6-.13,8.95.56,2.15.5,5.28.72,5,3.64-.23,2.65-3.24,3.08-5.52,3.33-5.29.56-10.52-1-14.59-.7,19.89.87,40.36,6.1,61.13,9.31,13.9,2.15,27.7,3.55,41.67,1.1a13.25,13.25,0,0,1,2-.26c3.56-.1,8.69-1.33,9.37,3,.63,4-4.53,5-7.94,6.15-6.32,2.2-13.09,1.51-21.57,2.78,6.11,3.86,11.43,4.09,16.34,5.38,21.13,5.58,42.76,9.28,63.53,16.29,2.83.95,5.3,1.38,5.55-2.78,1.47-2.71,3.53-1.27,5.73-.63-3.11-1.57-6.28-2.26-8.92-4.11-6.28-5.56-16.06-7.16-18.68-17.08-.49-1.86-4.49-2.21-6.8-3.44a66.87,66.87,0,0,0-12.84-5.33c-8.69-2.32-8.8-3-2.61-10.83,12.34-12,15.86-26.4,11.77-42.93a324.33,324.33,0,0,0-10.76-36.28c-10.31-27.47-10.07-56-9.34-84.6.08-3.25,1.31-6.59-.5-9.75-4.28-6.71,1.52-9,5.5-11.35,14.85-9,28.43-19.56,41.87-30.47,19-15.43,34-34.49,49.07-53.45a139,139,0,0,0,12-16c2.2-3.34,4.41-6.85,8.47-8.15,11.8-3.79,13.38-14.55,16.54-24.16.71-2.15.69-5.88-2.59-4.91-8.61,2.54-8.28-3.32-7.82-8.13.68-7.11-2.66-8.73-8.73-8.42-20.16,1-39.56,5.12-57.86,13.86-4.37,2.08-8,5.1-9.19,9.95-6.84,26.84-26.58,42.14-49.05,55a95.56,95.56,0,0,1-23,9.63c-3.24.85-7.73,2.13-9.11-1.21-1.77-4.32,3.38-4.83,6.1-6a221.09,221.09,0,0,0,22.44-10.9c4.23-2.39,5.71-5.12,2.23-9.54-5.43-6.89-4.9-15.07-3.63-23,3.09-19.4,21.15-38.55,40.39-42.39,5.62-1.12,8-3.55,8.77-8.88,2.23-15.17,5.74-30.08,9.43-44.94A90.07,90.07,0,0,0,403.6,253c-.46-3-.85-6,1-8.7,5.66-3.44,8.89-8.76,11.48-14.63,13.12-29.69,20.41-60.94,24.77-93,.49-2.06,1.21-4,3.45-4.75,3.46,1,.92,4.62,2.7,6.37-5.47,38.4-13.79,75.93-34,109.76-1.36,2.29-3,4.41-2.59,7.32,2.57,16.65-2.61,32.36-6,48.25-3.57,16.6-7.4,33.14-7.85,50.22,0,1.29-.52,2.64.64,3.86,1.71.7,3-.68,4.38-1.41C423.89,344.43,448.13,341,473,340.43c7.28-.16,7.54.11,6.92,7.69a6.4,6.4,0,0,0,2.63,6c2.78,2.38,5.85,4.47,8.38,7.08s5.73,5.6-.34,8.21c-2,.84-1.15,2.82-.51,4.33a4.22,4.22,0,0,1-.4,4.67c-4.44,5.34-7.48,11.24-8.3,18.27-.31,2.68-2.63,2.21-4.67,2.18-3,0-6.25-3.11-9.5.84,1.81,3.38,5.25,2.13,7.74,2.32,17.93,1.35,35.91,2.14,53.77,4.36,54.14,6.73,106.48,20.15,156.55,42,4,1.72,7.75,3.86,11.54,5.94,3.1,1.7,3.46,3.83.51,6.13a3.07,3.07,0,0,1-3.11.21c-31.62-17.95-66.34-27.24-101.16-36.24-39.81-10.29-80.43-14.47-121.41-15.88-3.08-.1-6.25-.33-8.32,2.25-8.1,10-17.3,19.27-19.95,32.81-5.44,27.76-11.5,55.39-17,83.13-2.71,13.66-4.66,14.75-18.3,12.19-7.19-1.34-14.27-3.3-21.56-3.89-6.7,1-3.8,6-3.5,9.37.95,10.55,2.13,21.08,3.1,31.62-.4,4.06,1.15,7.87,1.54,11.82,1,10.37-2.51,13.66-12.48,11.68-1.94-.38-3.78-1.25-6.6-1.2.13,7.63,2.58,13.08,10.08,16,24.26,9.56,26,8.61,27.58-17.47.46-7.66.95-15.24,3.25-22.6,4.62-6.88,10.76-3.37,16.27-2,14.11,3.38,14.19,3.61,21.38-8.74,8.38-14.39,16.62-28.85,25-43.21,7.21-12.3,8.26-13,22.35-9C529.71,521.34,564.76,532,600,542c6,2.76,9.61-1,13.76-4.5,6.34-5.33,10.06-14,19.39-15.57.59.48.8,1,.63,1.49S633.38,524.22,633.2,524.22Z"/><path class="cls-2" d="M97.12,146.49C59.12,121.1,26.84,90,1.65,51.68.78,50.36-.54,49.09.23,45.85c31.83,2.46,61.66,12.42,90.84,24.88C91.3,72.65,90,73.36,88.54,74,83,74.54,82.2,78.27,82,83c-.5,11.58,1.16,22.87,3.64,34.09-.74,11.92,7.51,19.14,14.2,27.17C99.69,146,99.22,147.23,97.12,146.49Z"/><path class="cls-2" d="M447,138.29c-2.1-1.7-1.42-4.26-2-6.42-2.88-3.05-2.83-7-1.83-10.37,3.08-10.43-1-18.84-6.4-27.18-7.47-11.63-16-22.09-28.63-28.57-1.53-1.62-2.52-3.33-.88-5.46A183.75,183.75,0,0,1,438.08,3.94c4.5-5.56,5.94-5.3,8.5,1.18,4.08,10.3,5.44,21.22,6.13,32.12A407.5,407.5,0,0,1,447,138.29Z"/><path class="cls-3" d="M407.22,60.29c.28,1.45.33,3,1.66,4,2.35,3.68.42,7.09-.83,10.44-11.37,30.38-18.59,61.79-23.32,93.82-1.36,9.26-.62,18.6-.55,27.91.05,6.75,5.09,10.52,8.88,15.08,2.07,2.51,5.11,5.65,1.95,8.67s-6.22,0-8.69-2.16c-7.31-6.29-13.48-13.79-21.11-19.79C338.24,177,307.69,166,273.47,163c-16.57-1.47-32.45.91-48.58,2.68-6.19.68-10.42,1.4-13.66-6.8s-11.92-14.1-19.06-20a391.57,391.57,0,0,0-88.58-55.45c-5.5-2.5-12.39-3.58-14.81-10.59l2.29-2c46.46,20.57,90.52,44.83,125.65,82.59,3.46,3.73,6.55,5.63,12,4.77,53.46-8.51,101.5,3.89,143.81,37.87,1,.8,2.1,1.42,4.15,2.78,1.05-11.21.95-21.66,2.35-32A450.35,450.35,0,0,1,406,61.84,6.56,6.56,0,0,1,407.22,60.29Z"/><path class="cls-1" d="M97.12,146.49l2.07-1.65c5-2.12,8,1.77,11.41,3.95,16.2,10.44,32.62,20.33,50.6,27.61,9,3.67,18.65,4.24,27.75,7.18,1.81,8.55-5.21,13-9.13,18.69-2.7,3.91-3.54,10.58-10.68,10l.16.14c1.89-8.58,6.86-15.58,12.84-23.6C150.19,180.74,122.65,165.57,97.12,146.49Z"/><path class="cls-4" d="M633.2,524.22c0-1-.05-2-.08-3,1.1-6.29,5.54-10.51,9.65-14.73,13.68-14,27.59-27.85,41.57-41.59,2.66-2.61,5-6.63,10-4.74l3,.29c-5.08,7-11.86,12.46-17.95,18.51C664.07,494.13,648.59,509.14,633.2,524.22Z"/><path class="cls-5" d="M169.14,212.27c8.15-8.51,13.46-19.09,20.73-28.24-31.73-21.14-65.09-39.62-97.61-59.48-3.1-1.89-6.5-3.37-8.83-6.34-4.89-13.78-4.59-28.1-4.47-42.4,0-4.28,1.4-6.45,6-4.17a22.52,22.52,0,0,0,3.8,1.11c6,4.25,13,6.45,19.59,9.64,37,18.07,71.68,39.54,101.08,68.78,1.18,1.18,2.36,2.35,3.49,3.58,3.7,4,3.69,4,.6,10.09C283.66,150.6,344.44,166,392.91,221c2.73-3.92.2-5.45-1.27-6.51-9.92-7.06-11.28-17-10.77-28.2,1.41-31.17,8.45-61.21,17.32-90.9,3.14-10.51,7.1-20.76,10.69-31.13,3.53-1.31,5.55,1.43,7.75,3.14,13.06,10.13,22.18,23.3,29.09,38.16,1.79,3.85,1.62,7.68.92,11.6-.87,4.86-2,9.68-1.68,14.68l-1.86,4.41a303.26,303.26,0,0,1-27.74,77.32c-5.13,9.93-5.84,20.79-10.11,30.71,5,20.83.56,40.95-4.59,61a338.84,338.84,0,0,0-7.57,40.58c-13-3.2-22.32,2.81-30.75,10.83a58,58,0,0,0-15.48,24.1c-4.12,12.48-3.8,23.63,9.74,31.69-12.38,9.84-26.2,15-40.12,21.07,4.85,1.61,8.58-.49,12.15-1.82a133,133,0,0,0,44.24-26.53c10.77-9.87,19-21.51,21.86-36.12.9-4.58,3.44-6.82,7-8.89,12.57-7.31,26.31-11.2,40.48-13.46,11.12-1.78,22.36-3.3,34.23-1.87.35,6.26-2.44,12.3-.9,18.83,3.72-.61,2.33-4.49,4.25-6,2.52.08,3.84,2.22,5.6,3.56,2.33,1.77,5.46,3.71.38,6.1a2,2,0,0,0-.85,1.69c3.48,10.06-7.71,15.25-8,24.13-.06,1.8-2.77,1.52-4.27,1.11-5.17-1.43-7.79,1.19-10.43,5.24-4.33,6.63-7.52,14.19-14.19,19.1-22.68,18.55-48.75,32-72.79,48.52-12.63,8.68-22.82,19.33-27.65,34.16-1.07,3.31-4.44,8.84,3.6,9.13,4-2.32,3.55.3,3.26,2.89-1.54,13.89-1.51,27.83-1.28,41.79A147.93,147.93,0,0,0,360,597.2c4.27,13.61,8.47,27.24,12.43,40.93,2.8,9.67,4,19.47,1,29.42-2.54,8.53-6.72,15.81-14.49,20.61a4.17,4.17,0,0,1-4.35-1.78c-17.76-22.76-43.62-25.81-69.61-29.11-26.55-3.37-52.22,1.58-78.21,5.79-30.51,4.94-61.07,4.17-90.77-6.16-3.45-1.21-7-2-10.57-3-15-4.16-15.67-3.86-22.48,10-.75,1.54-1.75,2.82-3.77,2.49-13-14.84-13.94-32-8.2-49.63,8-24.65,17-49,25.59-73.47,6-17.27,12.23-34.47,17.86-51.87,1.5-4.67,3.34-6.8,8.3-6.08,27.52,4,52.7-4,77.09-15.48,4.67-2.19,8.79-4.5,14-1.69,2,1.08,4.33,1.23,5.23-2.23,1.75-6.7,1.92-6.66,9.21-8,1.79-1.89.41-3.58-.37-5.35-.67-1.51-1.56-3.57.66-4.14,6.42-1.67,5.53-4.67,2.94-9.46-2.1-3.89,2-2.47,3.75-2.77a7.19,7.19,0,0,1,4,2.77c5.79,7.49,12.69,7.51,20.35,3.2,3.4-1.92,7.17-3.25,10.73-6.6-12.82-4.3-26.78-2.25-37.27-11.23-6-2.3-4.1-6.55-1.95-11.16-7.91-1.17-13.88-5-19.67-9.58-14.07-11.16-30.12-18.67-47.86-21.1-9.88-1.36-15.24-5.88-18.82-14.7-3.24-8-7-15.75-9.89-24.65,9.65-1.43,17-5.79,21.87-14.09a56.7,56.7,0,0,0,7.64-36.46c-1.29-10.2-2.85-20.72-13.46-26.38-3.09-1.65-1.64-3.81-.58-5.89,7-13.68,11.33-28.42,17.52-42.41C168.81,216.08,169.92,214.39,169.14,212.27Z"/><path class="cls-5" d="M694.31,460.13a10.11,10.11,0,0,0-2.6,1.33c-19.75,19.69-39.94,39-58.59,59.73-7.23,7.23-14.56,14.38-21.66,21.75-3.17,3.28-6.21,4.88-10.2,1.54-14.52-11-28.82-22.37-43.6-33.1-23.51-17.07-49.59-29.67-74.62-44.1-3.74-2.15-7.67-4-11.41-6.13-9-5.22-11.13-4.66-13.55,5.69C451.5,495,446,523.39,440,551.67c-1,4.88-1.95,9.78-3.79,14.45-1.9,4.84-5.43,6.1-9.42,3.15-13.89-10.28-27.94-20.35-41.23-31.41-1.43-1.19-5.14-3.43-.57-5.78,9.69.48,18.94,3.51,28.49,4.85,7.42,1,7.59,1.26,9.15-6.15,3.63-17.23,7-34.52,10.57-51.78,2.6-12.69,5.53-25.33,7.76-38.09a31,31,0,0,1,6.37-14.34c4.53-5.75,8.94-11.6,13.12-17.6,2.41-3.46,5.34-4.39,9.38-4,22.52,1.93,45.14,3,67.57,5.66,27.09,3.2,53.53,10,79.82,17.21,24.39,6.71,48.31,14.73,71,26.17C690.69,455.27,695.19,455.17,694.31,460.13Z"/><path class="cls-5" d="M81.59,460.13c-21.12-26.88-12.9-58.79,18.55-71.6,20.53-8.36,41.67-7.35,62.8-3.1,18.52,3.73,35.47,11.08,49.94,23.55a17.67,17.67,0,0,0,6.8,4c3.8,1,6.88,2.22,5.08,7.36-.69,2,1.31,3.52,2.9,4.82,2,1.66,4.4,3,5.41,5.87-1.49,2.86-5.66,1.4-7.17,4.29-.34,3.24,3.25,4.88,3.34,8.22-3.55,1.32-8.12,2.25-5.42,7.87,1,2,.37,3.57-1.59,3.57-6.38,0-6.92,4.7-7.3,9.47l-9.38-1.88c-1.63-.24-3.3-1.08-4.89-.68-31.85,8-63.25.32-94.73-2.94C97.64,458.13,89.6,457.24,81.59,460.13Z"/><path class="cls-6" d="M79.26,666.36c2.93-2.22,1.6-5.49,2.06-8.32,1.17-7.29,3.83-9.38,11.25-9.74,7.91-.38,14.84,3.25,22.18,5.08,10.89,2.73,21.44,7,32.71,8,17.53,1.57,35.1,2.32,52.59-.32s35.21-5.67,52.81-8.46a19.31,19.31,0,0,1,5-.12c23.57,2.48,47.53,1.47,70.24,10.85,13.1,5.4,24.08,12.25,30.94,24.85-1.09,1.17-2.2,2.32-3.25,3.52-.18.19-.11.6-.25,1.55,7.41-.16,14,2.4,19.78,6.8-1.54,5.48-6.47,6.11-10.81,7.25-9.86,2.6-19.83,4.83-29.15,9.12-7-.33-13.73-2.43-20.42-4.37-2.34-.68-4.28-2.35-3.7-5.14.54-2.61,3-2.23,4.87-2.23a101.3,101.3,0,0,0,23.81-2.31c2.2-.53,4.71-.46,6.09-3.46-4.82-1.92-9,1-13.33,1.51-14.08,1.82-27.86.12-41.67-2.35-19.31-3.46-38.69-6.62-58-10-3.13-.55-6.17-1.64-10.59-2.85,10.74-1,20,.9,29.06-2-41.56-4.14-82.48,3.22-125.75,5.8,5.28,4.52,8.84,1.79,12.18,2,1.84.13,4.27-1.17,5.2,1.35,1.05,2.81-1.2,4.33-3.24,5.42-4.74,2.55-10,3.66-15.23,4.53a464.26,464.26,0,0,1-47.46,5.77c-.82-3.6,1.66-5.56,4-7.16,7.32-4.92,14.16-10.58,22.14-14.47,2.22-.33,4.61.69,8.25-1.55C98.44,681.34,87,676.75,79.26,666.36Z"/><path class="cls-6" d="M385,532.08c-.55.91-.84,2,.07,2.68q22.17,16.82,44.41,33.51c.5.37,1.24.41,3.13,1,10.92-38.23,15-78.1,26.93-115.89,4.9-.46,7.82,2,10.89,3.74,20.89,11.61,41.81,23.17,62.52,35.11a374.37,374.37,0,0,1,62.68,45.44c2.2,2,4.68,3.82,5.68,6.82-16.37-2.92-32-8.71-47.89-13.2-21.4-6-42.67-12.53-64-18.76-8.1-2.36-8.21-2.31-12.52,5.06-10.55,18.07-21,36.2-31.55,54.28-4.52,7.75-4.58,7.7-13.34,5.06-5.08-1.54-10.16-3.09-15.28-4.49-2.24-.62-4.66-1.16-5.86,1.85-.77,1.53-.1,3.41-.82,4.79-2.22,4.25-1.6,12.44-11.09,6.91-1.58-.92-6.75-6.8-11.71-1.87-.57.56-1.44-5.81-3.46-8.4-1.52-13.42-3.09-26.84-4.54-40.27C378.65,530.34,380.93,529.59,385,532.08Z"/><path class="cls-7" d="M374.29,526.2c2.47,23.2,4.77,44.93,7.18,67.61-6.56-.68-11.79-3.41-17.32-4.85-3.72-1-4-4.08-4.62-7-2.24-9.81-2.79-19.77-2.74-29.78.07-13.67.88-27.29,2.09-40.91.36-4,1.57-6.88,5-9.06,25.86-16.2,48.57-36.14,69.17-58.56a35.36,35.36,0,0,1,3.89-3c-6.17,30.2-12.2,59.48-18.08,88.78-.81,4-2.78,4.42-6.39,3.7C400.45,530.79,388.33,528.74,374.29,526.2Z"/><path class="cls-6" d="M81.59,460.13c1.8-4.46,4.77-6.54,9.86-5.84,8.15,1.13,16.38,1.64,24.54,2.7,18.93,2.46,37.8,5.36,57,5.53a71.08,71.08,0,0,0,22.44-3.21c4.26-1.36,7.83-1.1,10.15,3.3-26.2,15.31-54.41,22.08-84.69,19.56C104.51,480.82,91.1,473.87,81.59,460.13Z"/><path class="cls-8" d="M351.17,510.45c-6.95,2.19-8.94,1-7.68-5.21A52.91,52.91,0,0,1,356.79,480a97.55,97.55,0,0,1,21.26-17.79c21.21-13,41.89-26.79,62.78-40.29,2.24-1.44,4.47-2.87,7.18-3.28-20.42,28.16-44.55,52.58-73.27,72.32-7.37,5.07-15,9.72-22.59,14.52C350,506.84,347.86,508.07,351.17,510.45Z"/><path class="cls-9" d="M393,359c-1,20.46-12.73,36-28.66,49-2.37,1.94-4.71,1.74-7.37.48a16.35,16.35,0,0,1-9.26-18.06c3.23-18.24,13.58-31.31,29.81-39.89a18.35,18.35,0,0,1,4.68-1.65C390.24,347.23,393.24,349.76,393,359Z"/><path class="cls-9" d="M161.22,299.07c.65,10.2-2.22,19.24-7,27.8a27.09,27.09,0,0,1-7,8.29c-8.93,6.9-13.63,5.24-16.28-5.73a85.46,85.46,0,0,1-2.65-24.55c.69-13.49,9.3-23.08,16-33.63,1.93-3,4.4-2.23,6.87-.73,3.93,2.37,5.95,6.23,7.49,10.25A41.69,41.69,0,0,1,161.22,299.07Z"/><path class="cls-10" d="M383.73,575.71c4.24.47,2.92,5.2,4.59,7.26,3.22-.94,2.25-3.73,4.08-5.35l3.12,6.86c3.17-.41,2.47-4.54,5.27-5.06,3,1.38,1.58,4.81,3.33,7.27,3.77-3.41,4.7-8.22,6.69-12.41-.72,9.54-.92,19.17-2.37,28.61a115.81,115.81,0,0,0-1.27,15.84c-.07,4.39-2.08,6.3-6.24,5.17-9.28-2.53-18.5-5.3-27.73-8-2.87-.85-4.08-3.31-5-5.85-1.74-5-3.31-10-5.21-15.81,5.75-.66,10,2.19,14.61,3.3,6.43,1.57,7.53.64,7.67-6C385.41,586.15,382.47,581.14,383.73,575.71Z"/><path class="cls-11" d="M335.34,716.4c2.3-5.85,7.94-6.39,12.87-7.9,9.05-2.77,18.92-2.9,27.09-8.47a45.66,45.66,0,0,1,6.38,2.56c1.83,1,6.18,1.4,1.84,5.25-1.36,1.21,1.3,2.47,2.64,3.24,5.16,2.95,10.4,5.78,14.9,9.74a1.44,1.44,0,0,1-.28,2.26c-7-.88-12-6.22-17.7-7.5,6.19,2.2,12.4,6.55,19.26,9.62l.79,1.13c.4,3,5.35,3.24,4.4,7.1C402.22,733.62,349.66,721.21,335.34,716.4Z"/><path class="cls-12" d="M405.25,244.31c-1.34-10.65,1.73-20.06,6.63-29.53,11.47-22.18,19.66-45.74,27.42-69.43,1-3.11,1.39-6.53,3.8-9.07-.32,16.06-4.57,31.47-8.35,46.88-5,20.33-11.52,40.18-21.86,58.59C410.84,245.4,408.66,246,405.25,244.31Z"/><path class="cls-13" d="M103.32,686.48c-3.37,5.52-9.07,8.3-14.06,11.93-4.18,3.05-9.24,5-12.12,9.7-7.44,2-15,2.66-24.27,2.67,8-7.5,18-8.16,25.79-13.07-12.8-.46-22.86,7.34-34.28,11.29,6.7-9.07,18.71-10,26.85-16.62l-1-1.87L47.65,700.69c1.09-4.48,4.52-5.21,7-6.65,4.91-2.79,10.12-5,15.11-7.7C81,680.36,92.18,678.16,103.32,686.48Z"/><path class="cls-14" d="M233.2,424.34c13.81,4.36,28,6.68,44,8.7-8.14,8.83-17.16,14-27.67,15-7.32.67-11.71-5.11-14.15-11.81C240.48,431.19,235.5,428,233.2,424.34Z"/><path class="cls-15" d="M401.26,722.23a2.44,2.44,0,0,1-.2-1.41c5.17,2.65,10.1,5.62,14.29,10.71-6,1.5-7.32-6-12.22-5.2l.13.16C402.26,725.23,399.85,724.63,401.26,722.23Z"/><path class="cls-8" d="M83.43,118.21c6.46.08,10.87,4.65,15.89,7.61q38.55,22.69,76.7,46.09c5.2,3.19,11.89,5.08,13.85,12.13-5.66,1.51-11.15.6-16.67-1-22.29-6.4-42.12-17.78-61.45-30.2q-6.27-4-12.56-8C89.49,138.6,82.92,130.49,83.43,118.21Z"/><path class="cls-16" d="M219,293.88c4.81,7.6,12.06,7,19,6.48a225.22,225.22,0,0,0,22.75-2.58c5.12-.9,8.95.43,12.72,3.73a161.43,161.43,0,0,0,14,11.14c11.86,8.28,15.21,9,28.61,7.2.56.91.71,2.23-.32,2.4-7.47,1.25-9.19,7.59-12,13.07-8.2,16-17.65,31.23-29.69,44.7C268.57,386.24,262.5,392,255,395.79c-12.08,6.16-20.21,3.29-26-8.89a67.61,67.61,0,0,1-5.54-20.09,276.55,276.55,0,0,1-1.87-49.74C222.19,303.77,222.24,303.77,219,293.88Z"/><path class="cls-17" d="M201.32,272.51c-11.6.08-20.12-8.26-20.36-19.94a23.51,23.51,0,0,1,23.87-24c11.59.12,20.07,8.78,20,20.4A23.86,23.86,0,0,1,201.32,272.51Z"/><path class="cls-18" d="M373.24,295.32c1.31,10.86-7.52,22.17-20.39,22.27C340.5,317.68,331,307,331,293.89c0-11.71,9.3-21.7,20.18-21.73C363.78,272.13,373.23,282,373.24,295.32Z"/><path class="cls-19" d="M276.72,282.53c-.65,2.93-3,3.42-5.27,3.5-3.31.13-6-1.3-6.23-4.92-.14-1.83,1.5-2.88,3.35-2.88C272,278.25,275.17,278.87,276.72,282.53Z"/><path class="cls-1" d="M401.26,722.23c-.08,1.77,2.59,2.25,2,4.26-2.55.47-4.43-1.21-6.47-2.19-6.83-3.3-13.57-6.76-20.51-10.24,1.75-3.22,3.74-1.69,5.2-1C388.13,716,394.68,719.14,401.26,722.23Z"/><path class="cls-20" d="M287.44,356.36c-7,12.19-15.7,23.06-26.81,31.75q-23.41,18.33-31.19-10.48a125,125,0,0,1-4.22-43.35c16-18,50-12.28,62,12.56A10.73,10.73,0,0,1,287.44,356.36Z"/><path class="cls-21" d="M287.44,356.36c-3.84-19.44-23.86-32.71-42.81-29.09-7,1.33-13.16,4.09-19.41,7-.46-13.69,1.47-15.7,14.65-18,14.36-2.55,27.5-.26,39.41,8.22a44.3,44.3,0,0,1,6.66,5.88C294.91,340,295.14,344.76,287.44,356.36Z"/><path class="cls-22" d="M210.25,251.82a8.8,8.8,0,0,1-8.92-8.74,9.1,9.1,0,0,1,9.15-8.58,9.23,9.23,0,0,1,8.44,8.3A8.92,8.92,0,0,1,210.25,251.82Z"/><path class="cls-23" d="M359,284.44a7.85,7.85,0,0,1-7.84,8.32c-5.13.23-9.24-3.37-9.27-8.1s4.18-8.56,9.08-8.43A8.09,8.09,0,0,1,359,284.44Z"/></g></g><style>
        path { fill: #000; }
        @media (prefers-color-scheme: dark) {
            path { fill: #FFF; }
        }
    </style></svg>